<svg width="20" height="20" viewBox="0 0 20 20" fill="none" xmlns="http://www.w3.org/2000/svg">
<path d="M10.0003 1.66675C5.40533 1.66675 1.66699 5.40508 1.66699 10.0001C1.66699 14.5951 5.40533 18.3334 10.0003 18.3334C14.5953 18.3334 18.3337 14.5951 18.3337 10.0001C18.3337 5.40508 14.5953 1.66675 10.0003 1.66675ZM10.0003 16.6667C6.32449 16.6667 3.33366 13.6759 3.33366 10.0001C3.33366 6.32425 6.32449 3.33341 10.0003 3.33341C13.6762 3.33341 16.667 6.32425 16.667 10.0001C16.667 13.6759 13.6762 16.6667 10.0003 16.6667Z" fill="#9397AD"/>
<path d="M10.8337 5.83325H9.16699V10.3449L11.9112 13.0891L13.0895 11.9108L10.8337 9.65492V5.83325Z" fill="#9397AD"/>
</svg>
