<svg width="60" height="60" viewBox="0 0 60 60" fill="none" xmlns="http://www.w3.org/2000/svg">
<rect width="60" height="60" rx="30" fill="#0B0F19"/>
<path d="M39.3333 20.667H20.6667C19.3798 20.667 18.3333 21.7135 18.3333 23.0003V37.0003C18.3333 38.2872 19.3798 39.3337 20.6667 39.3337H39.3333C40.6202 39.3337 41.6667 38.2872 41.6667 37.0003V23.0003C41.6667 21.7135 40.6202 20.667 39.3333 20.667ZM39.3333 23.0003V23.5965L30 30.8567L20.6667 23.5977V23.0003H39.3333ZM20.6667 37.0003V26.5517L29.2837 33.2542C29.4937 33.4187 29.7468 33.5003 30 33.5003C30.2532 33.5003 30.5063 33.4187 30.7163 33.2542L39.3333 26.5517L39.3357 37.0003H20.6667Z" fill="#6366F1"/>
</svg>
