<svg width="24" height="24" viewBox="0 0 24 24" fill="none" xmlns="http://www.w3.org/2000/svg">
<g opacity="0.5">
<path opacity="0.5" d="M6.51599 14.323L5.02599 20.775C4.93399 21.174 5.09399 21.589 5.43199 21.822C5.60299 21.94 5.80099 22 5.99999 22C6.19299 22 6.38699 21.944 6.55499 21.832L12 18.202L17.445 21.832C17.793 22.064 18.25 22.055 18.59 21.808C18.928 21.561 19.077 21.128 18.962 20.726L17.133 14.326L21.669 10.244C21.966 9.976 22.075 9.558 21.947 9.18C21.818 8.802 21.477 8.536 21.079 8.504L15.378 8.05L12.911 2.589C12.75 2.23 12.393 2 12 2C11.607 2 11.25 2.23 11.089 2.589L8.62199 8.05L2.92099 8.503C2.52899 8.534 2.19199 8.791 2.05999 9.16C1.92599 9.529 2.02199 9.942 2.30199 10.216L6.51599 14.323ZM9.36899 9.997C9.73199 9.968 10.052 9.744 10.201 9.411L12 5.43L13.799 9.411C13.948 9.744 14.268 9.968 14.631 9.997L18.603 10.312L15.332 13.256C15.048 13.512 14.935 13.906 15.039 14.274L16.292 18.659L12.556 16.168C12.22 15.943 11.783 15.943 11.447 16.168L7.54299 18.771L8.59299 14.225C8.67099 13.885 8.56699 13.528 8.31699 13.285L5.27899 10.323L9.36899 9.997Z" fill="white"/>
</g>
</svg>
