<svg width="20" height="20" viewBox="0 0 20 20" fill="none" xmlns="http://www.w3.org/2000/svg">
<path d="M16.667 6.66675H11.9903L12.9262 3.86091C13.0945 3.35425 13.0095 2.79258 12.697 2.35925C12.3845 1.92591 11.8778 1.66675 11.3437 1.66675H10.0003C9.75283 1.66675 9.51866 1.77675 9.35949 1.96675L5.44283 6.66675H3.33366C2.41449 6.66675 1.66699 7.41425 1.66699 8.33341V15.8334C1.66699 16.7526 2.41449 17.5001 3.33366 17.5001H5.83366H14.4228C15.1137 17.5001 15.7403 17.0659 15.9837 16.4184L18.2812 10.2926C18.3162 10.1992 18.3337 10.1001 18.3337 10.0001V8.33341C18.3337 7.41425 17.5862 6.66675 16.667 6.66675ZM3.33366 8.33341H5.00033V15.8334H3.33366V8.33341ZM16.667 9.84925L14.4228 15.8334H6.66699V7.80175L10.3903 3.33341H11.3453L10.0437 7.23591C9.95783 7.49008 10.0012 7.76925 10.1578 7.98675C10.3145 8.20508 10.5662 8.33341 10.8337 8.33341H16.667V9.84925Z" fill="#9397AD"/>
</svg>
