<svg width="363" height="157" viewBox="0 0 363 157" fill="none" xmlns="http://www.w3.org/2000/svg">
<path opacity="0.1" fill-rule="evenodd" clip-rule="evenodd" d="M106.618 96.5767C26.8612 104.132 4.64739 143.536 3.19076 161.354L-0.0001267 161.072C1.6389 141.023 25.7101 100.895 106.328 93.259C156.036 88.5505 180.242 71.3748 201.935 53.0441C204.285 51.0581 206.609 49.0552 208.935 47.0507C228.172 30.4698 247.545 13.7721 283.216 5.50908C323.102 -3.73031 361.477 1.9714 389.544 14.7284C403.574 21.1056 415.094 29.276 422.937 38.2959C430.772 47.3079 435.041 57.301 434.23 67.2413L431.039 66.9597C431.75 58.244 428.033 49.1231 420.562 40.5307C413.098 31.9462 401.991 24.0216 388.261 17.7811C360.807 5.30257 323.125 -0.322531 283.912 8.76087C249.023 16.8429 230.199 33.0591 210.983 49.6139C208.655 51.6189 206.322 53.6288 203.954 55.6299C181.935 74.2363 157.145 91.7906 106.618 96.5767Z" fill="url(#paint0_linear_20005153_5115)"/>
<defs>
<linearGradient id="paint0_linear_20005153_5115" x1="434.328" y1="80.7716" x2="-0.00012207" y2="80.7716" gradientUnits="userSpaceOnUse">
<stop stop-color="#6366F1"/>
<stop offset="0.5" stop-color="#8B5CF6"/>
<stop offset="1" stop-color="#D946EF"/>
</linearGradient>
</defs>
</svg>
