<svg width="434" height="146" viewBox="0 0 434 146" fill="none" xmlns="http://www.w3.org/2000/svg">
<path opacity="0.1" fill-rule="evenodd" clip-rule="evenodd" d="M225.001 63.4888C248.35 97.7251 322.529 166.405 433.908 169.474L434 165.84C323.83 162.805 250.552 94.7541 227.78 61.2811L227.707 61.1737L227.62 61.0785C187.718 17.4347 153.418 0.595428 124.285 0.36158C95.1221 0.127488 71.6325 16.5326 53.3724 38.1787C35.1145 59.8224 21.917 86.8922 13.2934 108.481C8.97665 119.288 5.79526 128.749 3.69206 135.512C2.64029 138.894 1.85776 141.602 1.33735 143.468C1.07713 144.401 0.882419 145.124 0.752329 145.615C0.687283 145.861 0.638351 146.049 0.605509 146.176C0.589087 146.239 0.576692 146.288 0.568247 146.321L0.558603 146.359L0.55604 146.369C0.5554 146.371 0.554955 146.373 2.24485 146.834C3.93475 147.295 3.93519 147.293 3.93519 147.293L3.93705 147.286L3.94538 147.253C3.95289 147.224 3.96435 147.179 3.97984 147.119C3.99114 147.076 4.00453 147.024 4.02006 146.964C4.04719 146.86 4.08077 146.732 4.12086 146.581C4.24694 146.105 4.43743 145.398 4.69309 144.481C5.2045 142.647 5.97662 139.974 7.01649 136.631C9.09657 129.942 12.2461 120.576 16.52 109.876C25.0778 88.4519 38.1006 61.7934 55.9987 40.5763C73.8946 19.3617 96.4965 3.77353 124.258 3.99638C152.028 4.21928 185.455 20.2639 225.001 63.4888Z" fill="url(#paint0_linear_20005153_5105)"/>
<defs>
<linearGradient id="paint0_linear_20005153_5105" x1="434" y1="84.5118" x2="0.55603" y2="84.5118" gradientUnits="userSpaceOnUse">
<stop stop-color="#6366F1"/>
<stop offset="0.5" stop-color="#8B5CF6"/>
<stop offset="1" stop-color="#D946EF"/>
</linearGradient>
</defs>
</svg>
