<svg width="136" height="83" viewBox="0 0 136 83" fill="none" xmlns="http://www.w3.org/2000/svg">
<path opacity="0.1" fill-rule="evenodd" clip-rule="evenodd" d="M23.9465 87.1075C23.787 87.213 23.4238 87.4531 22.597 87.9999C21.1227 88.975 21.1223 88.9744 21.1218 88.9735L21.1139 88.9606L21.0914 88.9234C21.0718 88.8912 21.0434 88.844 21.0063 88.7823C20.9322 88.6589 20.8239 88.4774 20.6846 88.2409C20.406 87.768 20.0034 87.0752 19.5027 86.1882C18.5015 84.4144 17.1072 81.8623 15.5276 78.7372C12.3719 72.4939 8.46049 63.9318 5.47247 54.7023C2.49232 45.4971 0.38562 35.4933 0.952103 26.4099C1.52208 17.2702 4.81914 8.92807 12.7421 3.43027C16.8616 0.571686 21.9547 -0.247047 27.5212 0.32309C33.0837 0.892815 39.2554 2.8605 45.7033 5.74701C58.6005 11.5206 72.9242 21.1185 86.2414 31.2877C99.5755 41.4698 111.977 52.2844 121.041 60.5479C125.574 64.681 129.276 68.1793 131.845 70.6455C133.13 71.8787 134.132 72.854 134.814 73.5219C135.155 73.8559 135.416 74.113 135.592 74.2871C135.68 74.3741 135.746 74.4404 135.792 74.4851L135.859 74.5525C135.86 74.5534 135.861 74.5539 134.651 75.8656C133.442 77.1773 133.442 77.1771 133.441 77.1766L133.378 77.1139C133.335 77.071 133.27 77.0066 133.184 76.9215C133.012 76.7512 132.755 76.498 132.418 76.168C131.745 75.5081 130.752 74.5413 129.476 73.3171C126.925 70.8686 123.246 67.3914 118.738 63.2815C109.719 55.0588 97.3993 44.317 84.1738 34.2179C70.9314 24.1058 56.8577 14.6976 44.3222 9.0859C38.0537 6.27974 32.2501 4.45992 27.1788 3.94051C22.1115 3.4215 17.9122 4.21199 14.681 6.45418C7.90239 11.1579 4.95938 18.2988 4.43887 26.6452C3.91486 35.0479 5.86722 44.5333 8.78381 53.5421C11.6926 62.5267 15.5156 70.9034 18.6202 77.0455C20.1707 80.1131 21.5379 82.6152 22.5158 84.3476C23.0046 85.2136 23.3959 85.8868 23.6638 86.3417C23.7978 86.5691 23.9008 86.7418 23.9699 86.8568C24.0044 86.9142 24.0303 86.9573 24.0474 86.9854L24.0662 87.0164L24.0705 87.0235L24.0714 87.0249C24.0714 87.0249 24.0714 87.0249 23.9465 87.1075Z" fill="url(#paint0_linear_20005153_5106)"/>
<defs>
<linearGradient id="paint0_linear_20005153_5106" x1="135.859" y1="44.3507" x2="0.859802" y2="44.3507" gradientUnits="userSpaceOnUse">
<stop stop-color="#6366F1"/>
<stop offset="0.5" stop-color="#8B5CF6"/>
<stop offset="1" stop-color="#D946EF"/>
</linearGradient>
</defs>
</svg>
