<svg width="872" height="381" viewBox="0 0 872 381" fill="none" xmlns="http://www.w3.org/2000/svg">
<path opacity="0.1" fill-rule="evenodd" clip-rule="evenodd" d="M81.1167 354.572C89.3735 369.455 100.904 377.937 116.561 376.85C132.551 375.74 143.658 368.741 151.39 358.532C159.17 348.259 163.623 334.61 166.004 320.106C170.282 294.041 167.788 265.816 166.467 250.863C166.316 249.158 166.181 247.626 166.072 246.289L166.051 246.031C164.99 232.938 162.574 203.15 168.108 173.126C173.679 142.899 187.392 112.043 219.004 97.9831C250.693 83.8895 284.475 99.0403 309.976 117.215C322.78 126.341 333.631 136.323 341.276 144.017C345.101 147.866 348.128 151.147 350.202 153.47C351.239 154.631 352.038 155.553 352.58 156.187C352.851 156.504 353.057 156.749 353.197 156.915C353.251 156.98 353.295 157.032 353.328 157.073L353.329 157.074C363.461 166.398 381.668 180.198 403.363 191.277C425.139 202.396 450.264 210.688 474.184 209.118C486.096 208.336 492.392 204.418 495.27 199.168C498.189 193.844 497.974 186.487 495.398 177.889C490.265 160.757 476.287 140.486 464.833 126.973C457.06 119.053 449.143 108.704 443.435 97.1525C437.72 85.5857 434.164 72.6921 435.323 59.7785C437.668 33.6641 459.047 8.85539 516.375 -5.34406C545.235 -12.492 565.79 -8.39828 579.803 3.50443C593.774 15.3704 600.843 34.6647 603.442 56.9715C608.637 101.556 596.134 159.461 583.082 199.106C580.842 205.909 576.899 213.921 572.733 222.386C572.021 223.832 571.303 225.291 570.586 226.759C565.624 236.918 560.647 247.633 557.76 258.06C554.872 268.492 554.152 278.379 557.422 287.005C560.671 295.575 568.015 303.299 582.055 309.074C597.241 315.32 609.142 313.492 619.49 307.466C629.969 301.364 638.942 290.915 648.094 279.632C649.01 278.502 649.929 277.364 650.85 276.222C659.049 266.059 667.504 255.578 677.258 247.827C688.188 239.141 700.846 233.796 716.765 235.942C747.394 240.07 797.056 238.568 831.111 207.184C864.964 175.985 884.077 114.55 852.26 -2.95248L855.614 -4.02722C887.596 114.085 868.779 177.455 833.371 210.086C798.164 242.531 747.234 243.881 716.336 239.716C701.492 237.716 689.706 242.645 679.32 250.898C669.897 258.386 661.705 268.536 653.46 278.752C652.547 279.885 651.632 281.018 650.715 282.148C641.607 293.377 632.252 304.348 621.14 310.819C609.897 317.366 596.944 319.263 580.818 312.631C566.192 306.615 557.92 298.294 554.19 288.455C550.481 278.67 551.418 267.781 554.413 256.963C557.41 246.139 562.54 235.127 567.499 224.974C568.231 223.476 568.958 221.998 569.673 220.544C573.852 212.051 577.647 204.337 579.791 197.824C592.783 158.361 605.065 101.139 599.974 57.4499C597.43 35.6195 590.588 17.4894 577.652 6.50232C564.76 -4.44803 545.414 -8.63595 517.151 -1.63565C460.236 12.4614 440.918 36.5884 438.802 60.1482C437.732 72.0717 441.004 84.1999 446.514 95.3517C452.021 106.496 459.703 116.544 467.268 124.243L467.315 124.291L467.358 124.342C478.91 137.96 493.342 158.754 498.722 176.71C501.406 185.668 501.971 194.37 498.272 201.116C494.533 207.937 486.813 212.099 474.394 212.914C449.652 214.539 423.912 205.971 401.877 194.72C379.825 183.459 361.316 169.424 350.98 159.893L350.887 159.808L350.806 159.71L350.863 159.654C350.806 159.71 350.806 159.71 350.806 159.71L350.805 159.707L350.796 159.697L350.76 159.654C350.728 159.615 350.679 159.556 350.613 159.477C350.481 159.319 350.282 159.084 350.02 158.777C349.495 158.162 348.713 157.26 347.695 156.12C345.658 153.839 342.675 150.606 338.902 146.809C331.352 139.211 320.656 129.374 308.06 120.396C282.758 102.363 250.319 88.1645 220.327 101.504C190.26 114.876 176.996 144.249 171.536 173.873C166.101 203.359 168.48 232.705 169.539 245.765L169.555 245.954C169.661 247.268 169.795 248.784 169.946 250.48C171.266 265.385 173.815 294.151 169.445 320.775C167.009 335.616 162.398 349.978 154.088 360.951C145.729 371.988 133.719 379.47 116.783 380.646C99.5145 381.845 86.8769 372.315 78.1238 356.537C69.4226 340.853 64.4601 318.869 62.3038 294.593C57.9892 246.015 64.8452 187.427 76.48 149.436C78.5327 142.733 80.7747 135.857 83.0585 128.853C87.252 115.993 91.5859 102.703 95.1458 89.261C100.631 68.5481 104.176 47.8109 102.414 28.4429C100.659 9.14522 93.6338 -8.83444 77.8658 -24.1349C62.0497 -39.4823 37.3244 -52.2416 0 -60.7762L0.718994 -64.4982C38.3771 -55.8873 63.7546 -42.9242 80.1927 -26.9733C96.679 -10.9757 104.06 7.91831 105.893 28.0684C107.719 48.1481 104.035 69.4326 98.5049 90.3139C94.92 103.851 90.5162 117.359 86.2979 130.298C84.0244 137.272 81.805 144.08 79.7966 150.638C68.3175 188.121 61.5154 246.175 65.7835 294.227C67.9186 318.266 72.8078 339.595 81.1167 354.572Z" fill="url(#paint0_linear_20005153_5107)"/>
<defs>
<linearGradient id="paint0_linear_20005153_5107" x1="872" y1="157.059" x2="0" y2="157.059" gradientUnits="userSpaceOnUse">
<stop stop-color="#6366F1"/>
<stop offset="0.5" stop-color="#8B5CF6"/>
<stop offset="1" stop-color="#D946EF"/>
</linearGradient>
</defs>
</svg>
