<svg width="239" height="156" viewBox="0 0 239 156" fill="none" xmlns="http://www.w3.org/2000/svg">
<path opacity="0.1" fill-rule="evenodd" clip-rule="evenodd" d="M109.194 147.343C136.856 155.365 164.289 152.668 199.814 148.997C217.403 147.18 227.496 142.05 232.148 135.66C236.694 129.415 236.366 121.474 231.893 112.999C227.411 104.506 218.873 95.7566 207.611 88.4234C196.37 81.103 182.512 75.2593 167.51 72.5076C136.99 66.9095 119.58 51.6889 102.842 37.0548C102.644 36.8824 102.447 36.7101 102.25 36.5379C85.359 21.7733 69.0188 7.7437 40.1388 4.05986C28.7428 2.60622 20.5406 5.36282 14.8592 10.4383C9.14258 15.5451 5.77551 23.1808 4.43063 31.8524C3.08661 40.5186 3.78607 50.0939 6.08601 58.8768C8.38893 67.6709 12.2624 75.5432 17.1542 80.8776C53.5608 120.579 81.5826 139.335 109.194 147.343ZM108.334 150.552C79.9447 142.319 51.4446 123.097 14.8371 83.1772C9.48125 77.3367 5.39682 68.9195 2.99625 59.7524C0.592728 50.5741 -0.156891 40.5168 1.26915 31.3218C2.69431 22.1324 6.31641 13.6786 12.7729 7.91087C19.2644 2.11174 28.4191 -0.791428 40.5285 0.75322C70.4122 4.56506 87.3766 19.1856 104.31 33.9874L104.808 34.4219C121.546 49.0551 138.395 63.7844 168.066 69.2268C183.487 72.0552 197.73 78.0588 209.31 85.5996C220.871 93.1277 229.875 102.253 234.7 111.396C239.535 120.556 240.277 130.012 234.701 137.671C229.231 145.184 218.007 150.465 200.13 152.312C164.723 155.971 136.674 158.771 108.334 150.552Z" fill="url(#paint0_linear_20005153_5113)"/>
<defs>
<linearGradient id="paint0_linear_20005153_5113" x1="238.609" y1="77.7462" x2="0.548584" y2="77.7462" gradientUnits="userSpaceOnUse">
<stop stop-color="#6366F1"/>
<stop offset="0.5" stop-color="#8B5CF6"/>
<stop offset="1" stop-color="#D946EF"/>
</linearGradient>
</defs>
</svg>
