<svg width="185" height="148" viewBox="0 0 185 148" fill="none" xmlns="http://www.w3.org/2000/svg">
<path opacity="0.1" fill-rule="evenodd" clip-rule="evenodd" d="M72.7726 128.328C79.7429 139.13 92.3872 145.525 117.43 143.589C137.283 142.054 151.418 133.759 161.302 121.355C171.227 108.9 176.956 92.1864 179.72 73.7081C185.251 36.7342 178.825 -6.74615 171.159 -35.52L174.245 -36.4098C181.976 -7.39059 188.511 36.6022 182.885 74.2203C180.07 93.038 174.192 110.4 163.768 123.481C153.304 136.612 138.351 145.312 117.667 146.911C92.0368 148.892 77.9875 142.387 70.1137 130.184C66.2368 124.176 63.9521 116.92 62.4252 108.956C60.8991 100.997 60.109 92.2033 59.2921 83.0963C57.6507 64.7969 55.8844 45.126 48.0313 27.1254C40.2186 9.21754 26.3338 -7.12456 0.240417 -18.593L1.48671 -21.6618C28.3065 -9.87408 42.7957 7.06346 50.9474 25.7486C59.0257 44.2652 60.8326 64.4116 62.4606 82.564L62.4806 82.7868C63.3012 91.9346 64.0783 100.547 65.5658 108.305C67.0524 116.059 69.2274 122.833 72.7726 128.328Z" fill="url(#paint0_linear_20005153_5117)"/>
<defs>
<linearGradient id="paint0_linear_20005153_5117" x1="185" y1="54.9869" x2="0.240417" y2="54.9869" gradientUnits="userSpaceOnUse">
<stop stop-color="#6366F1"/>
<stop offset="0.5" stop-color="#8B5CF6"/>
<stop offset="1" stop-color="#D946EF"/>
</linearGradient>
</defs>
</svg>
