<svg width="35" height="182" viewBox="0 0 35 182" fill="none" xmlns="http://www.w3.org/2000/svg">
<path opacity="0.1" fill-rule="evenodd" clip-rule="evenodd" d="M16.8639 170.257C25.8385 175.507 37.2346 177.957 45 178.58L44.775 181.886C36.7534 181.243 24.8954 178.722 15.4156 173.176C5.92382 167.624 -1.5635 158.762 0.280933 145.479C2.43313 129.98 6.16015 117.102 9.48166 106.45C9.96099 104.913 10.4298 103.428 10.8829 101.992C13.6014 93.3789 15.758 86.546 16.2611 80.9589C16.3993 79.4251 16.3226 77.1079 16.1294 74.0989C16.0277 72.5161 15.8996 70.8154 15.7618 68.9866C15.6367 67.3267 15.5037 65.5614 15.3753 63.6829C14.8433 55.8984 14.4298 46.6642 15.2526 37.7265C16.0736 28.8078 18.1395 20.0094 22.6921 13.2139C27.2972 6.34021 34.3466 1.66753 44.781 0.875458L44.994 4.18275C35.4028 4.91083 29.2034 9.13095 25.1614 15.1642C21.0671 21.2756 19.0879 29.3982 18.2909 38.0562C17.4956 46.6951 17.8911 55.693 18.4204 63.4376C18.5437 65.2418 18.6764 67.0065 18.8024 68.6801C18.9428 70.5469 19.0747 72.3003 19.1754 73.8683C19.3671 76.8526 19.4665 79.4332 19.3001 81.2816C18.7591 87.2892 16.4602 94.5632 13.7561 103.12C13.3045 104.548 12.8417 106.013 12.3738 107.513C9.07092 118.105 5.41207 130.765 3.30026 145.973C1.7335 157.256 7.90113 165.014 16.8639 170.257Z" fill="url(#paint0_linear_20005153_5116)"/>
<defs>
<linearGradient id="paint0_linear_20005153_5116" x1="45" y1="90.9479" x2="0" y2="90.9479" gradientUnits="userSpaceOnUse">
<stop stop-color="#6366F1"/>
<stop offset="0.5" stop-color="#8B5CF6"/>
<stop offset="1" stop-color="#D946EF"/>
</linearGradient>
</defs>
</svg>
