<svg width="153" height="42" viewBox="0 0 153 42" fill="none" xmlns="http://www.w3.org/2000/svg">
<path opacity="0.1" fill-rule="evenodd" clip-rule="evenodd" d="M0.612717 -13.3671C0.611649 -13.3685 0.610901 -13.3695 1.9883 -14.4875C3.36571 -15.6055 3.3656 -15.6056 3.36584 -15.6053L3.37798 -15.5892C3.38431 -15.5808 3.39304 -15.5693 3.40417 -15.5546L3.42133 -15.532C3.46051 -15.4804 3.52022 -15.4022 3.60002 -15.2986C3.75961 -15.0914 3.99957 -14.7828 4.3166 -14.3828C4.95067 -13.5829 5.89278 -12.418 7.1165 -10.9695C9.5645 -8.07171 13.1365 -4.0423 17.6211 0.470047C26.603 9.50727 39.1882 20.423 53.6897 28.0891C68.1928 35.756 84.4691 40.0998 100.936 36.2496C117.367 32.4076 134.317 20.3284 150.047 -5.54323L153 -3.60017C136.92 22.8468 119.273 35.6875 101.702 39.796C84.1663 43.8962 67.035 39.2213 52.1068 31.3296C37.1771 23.4371 24.3073 12.2544 15.192 3.08281C10.6281 -1.50923 6.99092 -5.6118 4.49191 -8.56994C3.24214 -10.0493 2.27631 -11.2434 1.62079 -12.0703C1.29301 -12.4839 1.04277 -12.8057 0.873383 -13.0256C0.808426 -13.1099 0.755356 -13.1793 0.714355 -13.233L0.680298 -13.2778L0.647964 -13.3204L0.629974 -13.3442L0.612717 -13.3671Z" fill="url(#paint0_linear_20005153_5109)"/>
<defs>
<linearGradient id="paint0_linear_20005153_5109" x1="153" y1="12.7177" x2="0.612671" y2="12.7177" gradientUnits="userSpaceOnUse">
<stop stop-color="#6366F1"/>
<stop offset="0.5" stop-color="#8B5CF6"/>
<stop offset="1" stop-color="#D946EF"/>
</linearGradient>
</defs>
</svg>
